<svg xmlns="http://www.w3.org/2000/svg" viewBox="0 0 360 640" role="img" aria-label="Red Pocky chocolate biscuit sticks box">
  <rect width="360" height="640" fill="#e51f2b"/>
  <text x="26" y="44" fill="#fff" font-family="Arial, Helvetica, sans-serif" font-size="22" font-weight="700">Glico</text>
  <g stroke-linecap="round">
    <path d="M82 180 58 36" stroke="#f4c247" stroke-width="18"/>
    <path d="M112 181 101 22" stroke="#f4c247" stroke-width="18"/>
    <path d="M142 184 145 31" stroke="#f4c247" stroke-width="18"/>
    <path d="M174 185 188 18" stroke="#f4c247" stroke-width="18"/>
    <path d="M204 184 229 38" stroke="#f4c247" stroke-width="18"/>
    <path d="M234 181 275 50" stroke="#f4c247" stroke-width="18"/>
    <path d="M264 176 313 78" stroke="#f4c247" stroke-width="18"/>
    <path d="M113 330 35 628" stroke="#3b2118" stroke-width="18"/>
    <path d="M139 330 88 636" stroke="#3b2118" stroke-width="18"/>
    <path d="M166 330 150 640" stroke="#3b2118" stroke-width="18"/>
    <path d="M193 330 214 640" stroke="#3b2118" stroke-width="18"/>
    <path d="M220 330 282 635" stroke="#3b2118" stroke-width="18"/>
    <path d="M245 330 337 623" stroke="#3b2118" stroke-width="18"/>
  </g>
  <text x="180" y="284" fill="#fff" font-family="Arial Black, Impact, sans-serif" font-size="88" font-weight="900" text-anchor="middle" transform="rotate(-6 180 284)">POCKY</text>
  <text x="180" y="338" fill="#fff" font-family="Arial, Helvetica, sans-serif" font-size="26" font-weight="900" text-anchor="middle">CHOCOLATE</text>
  <text x="180" y="368" fill="#fff" font-family="Arial, Helvetica, sans-serif" font-size="18" font-weight="800" text-anchor="middle">CHOCOLATE CREAM</text>
  <text x="180" y="392" fill="#fff" font-family="Arial, Helvetica, sans-serif" font-size="18" font-weight="800" text-anchor="middle">COVERED BISCUIT STICKS</text>
</svg>
