<svg xmlns="http://www.w3.org/2000/svg" viewBox="0 0 520 360" role="img" aria-label="Sushi rolls with rice, seaweed, cucumber, and shrimp">
  <rect width="520" height="360" fill="#d9dde2"/>
  <ellipse cx="258" cy="190" rx="210" ry="125" fill="#9fa7b0"/>
  <g transform="translate(78 60)">
    <g transform="translate(2 105) rotate(-8)">
      <ellipse cx="76" cy="76" rx="74" ry="67" fill="#111"/>
      <ellipse cx="76" cy="76" rx="58" ry="52" fill="#f7f7f5"/>
      <path fill="#8ccf5f" d="M48 48c33 2 57 22 67 57-31-8-55-24-67-57z"/>
      <path fill="#f6dcc8" d="M71 27c31 12 45 35 42 69-28-16-44-38-42-69z"/>
      <path fill="#f0a56b" d="M91 37c14 17 20 36 18 58-7-20-19-37-36-50z" opacity=".65"/>
    </g>
    <g transform="translate(146 132) rotate(9)">
      <ellipse cx="76" cy="76" rx="74" ry="67" fill="#111"/>
      <ellipse cx="76" cy="76" rx="58" ry="52" fill="#f7f7f5"/>
      <path fill="#8ccf5f" d="M45 88c27-22 57-26 90-12-27 24-57 28-90 12z"/>
      <path fill="#f6dcc8" d="M61 26c33 8 51 30 54 66-31-12-50-33-54-66z"/>
      <path fill="#f0a56b" d="M83 34c16 13 25 31 27 53-10-18-25-31-45-40z" opacity=".65"/>
    </g>
    <g transform="translate(270 98) rotate(-4)">
      <ellipse cx="76" cy="76" rx="74" ry="67" fill="#111"/>
      <ellipse cx="76" cy="76" rx="58" ry="52" fill="#f7f7f5"/>
      <path fill="#8ccf5f" d="M45 91c26-25 58-31 95-18-27 27-59 33-95 18z"/>
      <path fill="#f6dcc8" d="M55 34c30-6 54 6 71 36-31 3-55-9-71-36z"/>
      <path fill="#f0a56b" d="M82 33c19 4 34 14 44 31-18-10-38-14-59-10z" opacity=".65"/>
    </g>
    <g transform="translate(170 0) rotate(8)">
      <ellipse cx="76" cy="76" rx="74" ry="67" fill="#111"/>
      <ellipse cx="76" cy="76" rx="58" ry="52" fill="#f7f7f5"/>
      <path fill="#8ccf5f" d="M43 49c34-1 60 17 75 53-34-5-59-23-75-53z"/>
      <path fill="#f6dcc8" d="M81 25c31 11 47 34 46 67-30-14-47-36-46-67z"/>
      <path fill="#f0a56b" d="M101 36c15 14 23 32 23 52-8-18-22-33-42-44z" opacity=".65"/>
    </g>
  </g>
</svg>
